<?xml version="1.0" encoding="UTF-8"?><svg id="Ebene_1" xmlns="http://www.w3.org/2000/svg" viewBox="0 0 500 500"><defs><style>.cls-1{fill:#110506;stroke-width:0px;}</style></defs><path class="cls-1" d="M136.65697018,244.25766713c-11.310641,6.27025389-23.97569552,11.63131938-38.64404725,11.56716067-18.7315923-.08298319-31.77768446-10.74849678-33.04909321-29.48384534l80.34777235.35084362c.17732153-40.62472051-11.88409718-70.24439579-54.99127592-70.43304367-36.10877107-.15845386-54.05940602,27.52583918-54.20654792,61.15213763-.16599517,38.14227668,22.0817761,60.35986833,60.44663657,60.5258635,16.25291912.07170001,28.90286224-3.03327608,39.99091946-9.08094619l.10563591-24.59817022ZM65.05437582,205.57587016c1.4223141-15.56627133,10.05053702-27.26549128,26.97499253-27.19002061,16.92822616.07167123,23.64369079,12.74049641,24.48123674,27.41640383l-51.45622927-.22638322Z"/><path class="cls-1" d="M157.19758459,275.4803601l30.24217875.13205928.24899276-56.87385459c.06414431-14.89474933,4.90831344-38.57239041,26.80145605-38.47806647,19.40689934.08301198,19.55027058,19.27109819,19.48991132,33.48672665l-.27163108,62.06515425,30.24217875.13203049.32067838-73.34937188c.11317722-26.17893818-11.76334987-45.64245491-39.29673036-45.76317344-15.80016708-.06790057-28.68780538,5.0667817-38.22525988,18.34299895l-.448967-.00377066.06791497-15.79639642-28.66518145-.12451797-.50554122,116.23018179Z"/><polygon class="cls-1" points="278.52471332 183.95173932 334.94960091 184.19697581 275.74418626 252.09852835 275.63855035 276.70046923 372.23547837 277.12301286 372.33734362 253.64913107 312.52827876 253.38881196 370.60189245 185.70607254 370.71129902 160.8815191 278.62654979 160.47782875 278.52471332 183.95173932"/><rect class="cls-1" x="151.85124222" y="339.30100591" width="116.23128938" height="30.24435233" transform="translate(-145.369775 562.84041337) rotate(-89.74980668)"/><path class="cls-1" d="M265.97246183,378.26343625c.07924132-17.82991643,20.17654472-19.99923758,33.71688053-19.93886393l13.09136881.05658861c-.04150599,9.02812824-1.42988419,17.37340812-6.42496588,23.8964542-4.76495659,6.29667726-12.00481571,10.32972381-21.25932716,10.28821782-10.83527941-.0490473-19.16546228-4.3725926-19.1239563-14.3023967M250.84761619,327.64096788c10.19012322-7.62845246,23.07399087-12.5367659,35.93897646-12.48394795,17.82993082.07922693,26.15257238,6.43627784,26.07333106,25.16787014l-16.70187173-.07168562c-12.63863115-.05658861-27.54089301,1.00731178-39.07411779,6.59850236-11.53702422,5.59117619-19.93133701,15.71339883-20.00677889,33.090592-.09432394,22.11949704,19.93507888,34.618542,40.47380796,34.7090809,13.76669024.06037366,28.92172991-7.09650226,35.97296992-19.93130822l.45270887.00377066c.20750116,3.61050292.17733592,11.28421763,1.27897164,17.38472008l26.63167583.11319161c-.6375861-9.02814263-1.05635908-17.15459499-1.24123631-25.96013945-.1886191-8.57540497-.37726699-17.38096382-.32444903-29.11413406l.06412992-14.8985056c.15091255-34.30540494-14.4570943-49.03790097-49.89054393-49.19258418-12.86498559-.05658861-28.67649341,3.25963052-40.43610141,8.62446666l.78852744,25.96011066Z"/><path class="cls-1" d="M356.81257828,412.26361962l30.24217875.13205928.24897837-56.87386898c.0641587-14.89473494,4.90832784-38.57237602,26.80147044-38.47805207,19.40687056.08299759,19.55027058,19.2710838,19.48988253,33.48672665l-.2716023,62.06513986,30.24214997.13204488.32070716-73.34937188c.11317722-26.17895257-11.76334987-45.64244052-39.29673036-45.76315905-15.80016708-.06792936-28.68780538,5.06675291-38.22525988,18.34298456l-.448967-.00377066.06790057-15.79641081-28.66518145-.12448918-.50552682,116.2301674Z"/><path class="cls-1" d="M196.72936204,91.18867516c-3.93875139,3.91986933-5.91941027,8.66974331-5.94206298,14.24582248-.01508262,2.84465698.4904442,5.49686664,1.51663804,7.96045719,1.02242318,2.46736121,2.45604925,4.60650273,4.30090697,6.41742457,1.84108707,1.81466371,3.98776991,3.2445479,6.43250719,4.29336566,2.44850794,1.04881777,5.08563497,1.58076796,7.9189512,1.59207993,5.33464212.02642337,10.08071666-1.86751044,14.23828117-5.67794443,3.93872261-3.91986933,5.91941027-8.66974331,5.9420342-14.24582248.02642337-5.57610796-1.9127583-10.34106455-5.81754502-14.29486978-3.90475793-4.06324057-8.52637207-6.10805815-13.8609854-6.13068208-5.77229716-.02639459-10.68436686,1.9203284-14.72872538,5.84016895"/></svg>